<svg width="148" height="19" viewBox="0 0 148 19" fill="none" xmlns="http://www.w3.org/2000/svg">
<path d="M17.8594 16.7383L13.6055 12.4844C13.5 12.4141 13.3945 12.3438 13.2891 12.3438H12.832C13.9219 11.0781 14.625 9.39062 14.625 7.5625C14.625 3.55469 11.3203 0.25 7.3125 0.25C3.26953 0.25 0 3.55469 0 7.5625C0 11.6055 3.26953 14.875 7.3125 14.875C9.14062 14.875 10.793 14.207 12.0938 13.1172V13.5742C12.0938 13.6797 12.1289 13.7852 12.1992 13.8906L16.4531 18.1445C16.6289 18.3203 16.9102 18.3203 17.0508 18.1445L17.8594 17.3359C18.0352 17.1953 18.0352 16.9141 17.8594 16.7383ZM7.3125 13.1875C4.18359 13.1875 1.6875 10.6914 1.6875 7.5625C1.6875 4.46875 4.18359 1.9375 7.3125 1.9375C10.4062 1.9375 12.9375 4.46875 12.9375 7.5625C12.9375 10.6914 10.4062 13.1875 7.3125 13.1875ZM83.3203 2.53516C81.2812 0.8125 78.1523 1.05859 76.2188 3.0625C74.25 1.05859 71.1211 0.8125 69.082 2.53516C66.4453 4.75 66.832 8.37109 68.7305 10.3047L74.8828 16.5977C75.2344 16.9492 75.6914 17.1602 76.2188 17.1602C76.7109 17.1602 77.168 16.9492 77.5195 16.5977L83.707 10.3047C85.5703 8.37109 85.957 4.75 83.3203 2.53516ZM82.4766 9.10938L76.3242 15.4023C76.2539 15.4727 76.1836 15.4727 76.0781 15.4023L69.9258 9.10938C68.625 7.80859 68.3789 5.34766 70.1719 3.83594C71.543 2.67578 73.6523 2.85156 74.9883 4.1875L76.2188 5.45312L77.4492 4.1875C78.75 2.85156 80.8594 2.67578 82.2305 3.80078C84.0234 5.34766 83.7773 7.80859 82.4766 9.10938ZM146.777 2.5H132.469L132.152 0.953125C132.082 0.566406 131.73 0.25 131.344 0.25H127.828C127.582 0.25 127.406 0.460938 127.406 0.671875V1.51562C127.406 1.76172 127.582 1.9375 127.828 1.9375H130.641L133.066 14.4531C132.68 14.875 132.469 15.4023 132.469 16C132.469 17.2656 133.453 18.25 134.719 18.25C135.949 18.25 136.969 17.2656 136.969 16C136.969 15.6836 136.828 15.1914 136.652 14.875H141.75C141.574 15.1914 141.469 15.6836 141.469 16C141.469 17.2656 142.453 18.25 143.719 18.25C144.949 18.25 145.969 17.2656 145.969 16C145.969 15.3672 145.688 14.8047 145.266 14.3828L145.301 14.2422C145.406 13.7148 145.02 13.1875 144.457 13.1875H134.543L134.227 11.5H145.195C145.617 11.5 145.934 11.2539 146.039 10.8672L147.621 3.55469C147.727 3.02734 147.34 2.5 146.777 2.5ZM134.719 16.8438C134.227 16.8438 133.875 16.4922 133.875 16C133.875 15.543 134.227 15.1562 134.719 15.1562C135.176 15.1562 135.562 15.543 135.562 16C135.562 16.4922 135.176 16.8438 134.719 16.8438ZM143.719 16.8438C143.227 16.8438 142.875 16.4922 142.875 16C142.875 15.543 143.227 15.1562 143.719 15.1562C144.176 15.1562 144.562 15.543 144.562 16C144.562 16.4922 144.176 16.8438 143.719 16.8438ZM144.527 9.8125H133.875L132.785 4.1875H145.758L144.527 9.8125Z" fill="#22262A"/>
</svg>
